PathFileType	4	(x/y/z)	S02_M20_T04
DataRate	CameraRate	NumFrames	NumMarkers	Units	OrigDataRate	OrigDataStartFrame	OrigNumFrames
240	240	6	51	mm	240	408	466
Frame#	Time	Sternum			R.Acromium			L.Acromium			Top.Head			R.ASIS			L.ASIS			R.PSIS			L.PSIS			R.Great.Tro			L.Great.Tro			R.Iliac.Crest			L.Iliac.Crest			V.Sacral			R.Thigh.Upper.Post			R.Thigh.Lower.Ant			R.Thigh.Lower.Post			R.Thigh.Upper.Ant			R.Knee.Lat			R.Knee.Med			R.Shank.Upper.Post			R.Shank.Lower.Ant			R.Shank.Lower.Post			R.Shank.Upper.Ant			R.Ankle.Lat			R.Ankle.Med			R.Heel.Upper			R.Heel.Med			R.Heel.Lat			R.Toe.Lat			R.Toe.Med			R.Toe.Tip			L.Thigh.Upper.Post			L.Thigh.Lower.Ant			L.Thigh.Lower.Post			L.Thigh.Upper.Ant			L.Knee.Lat			L.Knee.Med			L.Shank.Upper.Post			L.Shank.Lower.Ant			L.Shank.Lower.Post			L.Shank.Upper.Ant			L.Ankle.Lat			L.Ankle.Med			L.Heel.Upper			L.Heel.Med			L.Heel.Lat			L.Toe.Lat			L.Toe.Med			L.Toe.Tip			Cervical.Spine			Back			
		X1	Y1	Z1	X2	Y2	Z2	X3	Y3	Z3	X4	Y4	Z4	X5	Y5	Z5	X6	Y6	Z6	X7	Y7	Z7	X8	Y8	Z8	X9	Y9	Z9	X10	Y10	Z10	X11	Y11	Z11	X12	Y12	Z12	X13	Y13	Z13	X14	Y14	Z14	X15	Y15	Z15	X16	Y16	Z16	X17	Y17	Z17	X18	Y18	Z18	X19	Y19	Z19	X20	Y20	Z20	X21	Y21	Z21	X22	Y22	Z22	X23	Y23	Z23	X24	Y24	Z24	X25	Y25	Z25	X26	Y26	Z26	X27	Y27	Z27	X28	Y28	Z28	X29	Y29	Z29	X30	Y30	Z30	X31	Y31	Z31	X32	Y32	Z32	X33	Y33	Z33	X34	Y34	Z34	X35	Y35	Z35	X36	Y36	Z36	X37	Y37	Z37	X38	Y38	Z38	X39	Y39	Z39	X40	Y40	Z40	X41	Y41	Z41	X42	Y42	Z42	X43	Y43	Z43	X44	Y44	Z44	X45	Y45	Z45	X46	Y46	Z46	X47	Y47	Z47	X48	Y48	Z48	X49	Y49	Z49	X50	Y50	Z50	X51	Y51	Z51	

408	1.6958	647.95	1101.9	300.44	528.71	1336.8	438.83	537.72	1332.5	145.93	584.33	1608.5	270.78	641.88	918.48	401.95	617.93	905.4	186.16	420.26	946.13	377.29	402.39	953.03	305.3	596.5	806.9	505.04	472.36	836.14	120.75	547.13	966.42	471.85	485.77	955.57	140.78	387.14	899.61	336.44	683.14	625.85	491.22	759.13	574.67	445.64	702.39	538.55	474.2	734.43	660.12	459.79	746.82	476.38	456.43	737.78	455.37	312.91	740.37	258.02	444.91	840.51	211.29	438.48	775.28	193.06	437.72	811.42	274.31	452.14	829.22	107.51	430.5	843.53	127.36	349.66	787.92	71.264	368.56	816.52	49.766	342.24	799.28	41.105	402.97	941.84	94.899	467.79	984.61	113.91	369.11	1008	154.65	430.41	403.78	624.14	157.44	459.54	528.97	160.37	384.18	538.53	182.9	472.9	620.62	136.16	423.83	454.09	175.96	428.13	455.63	314.79	311.63	299.29	192.54	368.3	203.71	207.27	300.01	228.64	212.75	373.31	277.76	187.75	313.08	104.07	227.97	326.16	104.15	310.21	251.25	78.071	266.13	259.63	51.334	299.37	254.17	50.317	237.75	418.41	33.799	202.36	443.53	44.707	312	503.21	55.043	263.09	456.37	1387.9	289.46	384.34	1135.5	304.17
409	1.7	653.07	1100.4	300.53	533.93	1335.5	439.1	542.84	1331.1	146.25	589.63	1607.3	271.44	647.53	917.32	401.83	622.65	904.34	185.98	425.8	944.98	378.09	407.58	951.98	306.21	602.4	805.41	504.99	476.64	835.59	121.01	552.97	965.15	472.18	490.16	954.44	141.15	392.48	898.51	337.36	688.74	624.66	490.84	764.64	573.48	445.11	707.95	537.36	473.78	739.97	658.93	459.3	752.71	475.51	456.07	743.2	454.25	312.41	750.64	257.3	445.08	851.7	212.55	438.06	786.8	193.01	437.69	821.42	275.05	451.78	842.6	108.42	430.26	855.85	128.43	349.36	801.49	71.191	368.84	830.31	50.225	342.35	813.73	41.368	403.2	955.76	98.081	466.76	997.34	117.81	367.69	1020.4	159.1	428.74	407.09	624.13	157.74	462.25	528.59	160.41	387.03	538.62	183.21	476.11	620.17	136.22	426.15	453.9	176.04	430.68	455.35	314.89	313.01	299.74	192.75	369.15	203.84	207.36	301.02	229.17	212.93	374.57	277.84	187.88	313.34	104.44	228.1	326.51	104.44	310.36	251.47	78.548	266.29	259.77	51.794	299.53	254.28	50.784	237.91	418.42	33.797	202.39	443.63	44.656	312.01	503.32	54.873	263.07	461.52	1386.8	289.78	389.33	1134.4	304.63
410	1.7042	658.21	1099	300.64	539.18	1334.2	439.39	547.98	1329.8	146.58	594.94	1606	272.12	653.2	916.15	401.69	627.37	903.29	185.78	431.36	943.82	378.9	412.8	950.92	307.12	608.31	803.9	504.94	480.93	835.02	121.27	558.84	963.87	472.52	494.57	953.32	141.53	397.84	897.4	338.29	694.34	623.48	490.49	770.17	572.29	444.63	713.52	536.17	473.39	745.52	657.73	458.85	758.6	474.65	455.75	748.63	453.13	311.95	760.76	256.65	445.25	862.65	213.82	437.61	798.1	193.03	437.65	831.24	275.78	451.39	855.67	109.37	430	867.85	129.55	349.02	814.72	71.218	369.08	843.72	50.767	342.41	827.81	41.731	403.38	969.32	101.22	465.67	1009.7	121.63	366.19	1032.5	163.43	427.01	410.44	624.09	158.07	465.03	528.2	160.44	389.96	538.69	183.54	479.36	619.71	136.28	428.55	453.69	176.12	433.37	455.03	314.98	314.47	300.19	192.95	370.04	203.96	207.46	302.08	229.72	213.1	375.91	277.91	188.01	313.62	104.84	228.23	326.88	104.75	310.51	251.7	79.054	266.44	259.92	52.283	299.68	254.4	51.277	238.06	418.43	33.795	202.42	443.73	44.607	312.02	503.44	54.699	263.05	466.7	1385.7	290.12	394.35	1133.3	305.11
411	1.7083	663.4	1097.5	300.75	544.45	1332.9	439.7	553.12	1328.5	146.92	600.26	1604.8	272.82	658.87	914.96	401.54	632.1	902.23	185.58	436.95	942.66	379.71	418.06	949.85	308.03	614.21	802.38	504.88	485.24	834.44	121.53	564.75	962.6	472.85	498.99	952.21	141.91	403.24	896.29	339.23	699.95	622.29	490.15	775.72	571.11	444.2	719.11	534.99	473.01	751.09	656.54	458.45	764.51	473.81	455.45	754.06	452.01	311.53	770.72	256.06	445.41	873.35	215.06	437.13	809.16	193.1	437.59	840.89	276.51	450.99	868.41	110.36	429.69	879.53	130.67	348.65	827.6	71.329	369.28	856.75	51.374	342.41	841.51	42.175	403.51	982.5	104.28	464.52	1021.6	125.35	364.63	1044.2	167.61	425.24	413.85	624.03	158.42	467.88	527.8	160.46	392.96	538.72	183.89	482.65	619.24	136.34	431.04	453.47	176.19	436.21	454.67	315.05	316.01	300.66	193.16	370.98	204.08	207.55	303.19	230.28	213.28	377.3	277.97	188.13	313.92	105.25	228.36	327.26	105.08	310.66	251.94	79.592	266.59	260.08	52.806	299.83	254.52	51.801	238.21	418.45	33.794	202.46	443.82	44.561	312.03	503.56	54.522	263.03	471.9	1384.6	290.49	399.4	1132.2	305.62
412	1.7125	668.61	1096.1	300.87	549.75	1331.6	440.03	558.27	1327.1	147.29	605.6	1603.6	273.54	664.55	913.76	401.36	636.83	901.17	185.36	442.56	941.51	380.52	423.34	948.77	308.94	620.12	800.86	504.81	489.57	833.85	121.79	570.7	961.32	473.17	503.43	951.11	142.3	408.67	895.18	340.17	705.58	621.12	489.84	781.3	569.94	443.8	724.73	533.82	472.66	756.69	655.37	458.09	770.45	472.99	455.19	759.5	450.9	311.16	780.51	255.54	445.55	883.8	216.28	436.63	819.97	193.21	437.5	850.35	277.22	450.57	880.8	111.37	429.36	890.89	131.8	348.25	840.11	71.506	369.43	869.38	52.029	342.36	854.82	42.675	403.59	995.3	107.25	463.32	1033.2	128.94	363.01	1055.6	171.62	423.44	417.32	623.95	158.79	470.81	527.39	160.47	396.06	538.73	184.26	485.99	618.77	136.4	433.64	453.23	176.26	439.2	454.27	315.1	317.62	301.14	193.36	371.96	204.21	207.64	304.37	230.86	213.45	378.77	278.04	188.24	314.24	105.69	228.48	327.66	105.42	310.8	252.19	80.164	266.72	260.24	53.364	299.98	254.66	52.357	238.35	418.47	33.792	202.5	443.92	44.518	312.04	503.68	54.343	263.01	477.12	1383.4	290.88	404.48	1131	306.15
413	1.7167	673.85	1094.6	301	555.08	1330.3	440.37	563.43	1325.8	147.67	610.95	1602.4	274.28	670.25	912.56	401.16	641.58	900.11	185.13	448.2	940.36	381.32	428.66	947.69	309.85	626.03	799.35	504.74	493.92	833.24	122.06	576.69	960.05	473.49	507.89	950.03	142.7	414.13	894.07	341.11	711.24	619.97	489.56	786.92	568.81	443.44	730.38	532.68	472.34	762.31	654.23	457.75	776.43	472.19	454.94	764.96	449.8	310.83	790.11	255.06	445.66	893.99	217.44	436.09	830.52	193.35	437.4	859.63	277.89	450.12	892.84	112.37	428.98	901.92	132.9	347.81	852.25	71.73	369.53	881.61	52.71	342.25	867.72	43.211	403.6	1007.7	110.09	462.07	1044.4	132.38	361.36	1066.6	175.44	421.62	420.85	623.85	159.19	473.81	526.97	160.46	399.23	538.71	184.64	489.38	618.29	136.47	436.32	452.97	176.32	442.33	453.82	315.13	319.32	301.64	193.55	373	204.33	207.72	305.6	231.46	213.61	380.31	278.1	188.35	314.59	106.15	228.6	328.08	105.8	310.94	252.46	80.772	266.85	260.41	53.959	300.11	254.81	52.948	238.48	418.49	33.79	202.54	444.03	44.479	312.04	503.8	54.161	263	482.37	1382.3	291.3	409.59	1129.9	306.69
